<svg xmlns="http://www.w3.org/2000/svg" width="64" height="64" viewBox="0 0 64 64">
  <defs>
    <linearGradient id="bg" x1="0%" y1="0%" x2="100%" y2="100%">
      <stop offset="0%" stop-color="#6366f1"/>
      <stop offset="100%" stop-color="#a855f7"/>
    </linearGradient>
  </defs>
  <rect width="64" height="64" rx="14" fill="url(#bg)"/>
  <g fill="none" stroke="#fff" stroke-width="2.5" stroke-linecap="round" stroke-linejoin="round">
    <path d="M22 40V24a4 4 0 0 1 4-4h4"/>
    <path d="M22 28h8a4 4 0 0 1 4 4v12"/>
    <path d="M20 36h14"/>
    <circle cx="46" cy="24" r="2" fill="#fff"/>
    <circle cx="46" cy="40" r="2" fill="#fff"/>
    <path d="M34 22h4a4 4 0 0 1 4 4v2"/>
    <path d="M42 36v4a4 4 0 0 1-4 4h-4"/>
  </g>
</svg>
